<svg width="256" height="330" viewBox="0 0 256 330" fill="none" xmlns="http://www.w3.org/2000/svg">
<g clip-path="url(#clip0_95_3)">
<rect width="256" height="330" fill="white"/>
<path d="M105.76 67.9553L113.143 65.387L122.132 63.4608L129.837 65.387L137.22 73.7338L138.826 84.6488L134.973 97.4899L128.232 105.195L119.243 109.368L111.538 108.726L104.154 105.195L99.3389 100.058L97.4128 88.1801L99.3389 76.9441L105.76 67.9553Z" stroke="black"/>
<path d="M196.932 72.4497L191.474 79.8333L183.128 85.9329L175.423 84.9698L168.681 80.7964L164.508 75.0179L164.187 66.9922L168.039 56.7192L174.46 49.9776L181.522 47.4094H186.338L192.758 49.9776L198.537 55.4351L199.5 63.7819L196.932 72.4497Z" stroke="black"/>
<path d="M137.862 76.9441L148.456 74.0548L152.951 72.1286L158.087 75.0179L164.829 72.1286" stroke="black"/>
<path d="M185.375 47.4094L180.88 45.1622L175.102 42.594L169.323 39.7047L165.471 37.4575L158.729 38.4206L154.235 40.3468L153.272 36.8154L148.456 33.9262L143.641 32H138.504L133.689 33.9262L130.479 37.4575L129.516 41.3098V44.1991L121.49 46.4463L107.365 49.9776L98.3758 53.83L94.2025 49.9776L89.066 46.4463H86.8188L85.8557 42.594L82.3244 41.3098L76.5459 40.3468L70.7673 39.7047V33.9262L58.2472 37.4575L59.2103 39.7047L56.6421 41.3098L56 62.4978L80.7192 66.3501V75.66L86.8188 73.7338V91.0694L97.4127 87.538" stroke="black"/>
<path d="M71.4094 64.745L62.4206 67.3132L62.0995 69.5604L73.9776 78.5492L86.8188 74.3758" stroke="black"/>
<path d="M60.8154 63.4608L61.7785 71.1655L67.236 78.2282L73.9776 81.4385L80.7192 80.4754L86.8188 78.2282" stroke="black"/>
<path d="M81.0403 66.6711L84.5716 64.4239V46.7673L83.6085 43.557V41.6309" stroke="black"/>
<path d="M64.9888 46.1253L70.4463 46.7673L73.0145 48.0515L75.2618 52.2248L75.5828 57.0403L72.0515 62.1767L66.594 63.1398L61.7785 61.8557L58.5682 57.0403L59.2103 52.5459L60.4944 49.0146L64.9888 46.1253Z" stroke="black"/>
<path opacity="0.2" d="M178.751 253.627L190.585 249.51L204.992 246.423L217.34 249.51L229.174 262.888L231.747 280.382L225.573 300.963L214.768 313.311L200.361 320L188.012 318.971L176.178 313.311L168.461 305.079L165.373 286.041L168.461 268.033L178.751 253.627Z" stroke="black"/>
<path opacity="0.2" d="M230.203 268.033L247.183 263.402L254.386 260.315L262.618 264.946L273.423 260.315" stroke="black"/>
<path opacity="0.2" d="M306.353 220.697L299.149 217.095L289.888 212.979L280.627 208.349L274.452 204.747L263.647 206.29L256.444 209.378L254.9 203.718L247.183 199.087L239.465 196H231.232L223.515 199.087L218.369 204.747L216.826 210.921V215.552L203.963 219.154L181.324 224.813L166.917 230.988L160.228 224.813L151.996 219.154H148.394L146.851 212.979L141.191 210.921L131.929 209.378L122.668 208.349V199.087L102.602 204.747L104.145 208.349L100.029 210.921L99 244.88L138.618 251.054V265.975L148.394 262.888V290.672L165.373 285.012" stroke="black"/>
<path opacity="0.2" d="M123.697 248.481L109.29 252.598L108.776 256.199L127.813 270.606L148.394 263.917" stroke="black"/>
<path opacity="0.2" d="M106.718 246.423L108.261 258.772L117.008 270.091L127.813 275.237L138.618 273.693L148.394 270.091" stroke="black"/>
<path d="M139.133 251.568L144.793 247.967V219.668L143.249 214.523V211.436" stroke="black"/>
<path d="M113.407 218.639L122.154 219.668L126.27 221.726L129.871 228.415L130.386 236.133L124.726 244.365L115.979 245.909L108.261 243.851L103.116 236.133L104.145 228.929L106.203 223.27L113.407 218.639Z" stroke="black"/>
<path d="M139 251.5L99 245L100 211L104 208.5L102.5 205L122.5 199V208.5L143 211.5" stroke="black"/>
<path d="M25.0426 117.711C24.8831 118.24 25.1825 118.798 25.7113 118.957L34.3279 121.556C34.8567 121.716 35.4146 121.416 35.5741 120.887C35.7335 120.359 35.4342 119.801 34.9054 119.641L27.2461 117.331L29.5561 109.672C29.7156 109.143 29.4162 108.585 28.8874 108.426C28.3587 108.266 27.8007 108.566 27.6413 109.095L25.0426 117.711ZM66.5272 95.1188L25.5272 117.119L26.4728 118.881L67.4728 96.8812L66.5272 95.1188Z" fill="black"/>
<path d="M236.957 16.2887C237.117 15.76 236.818 15.2021 236.289 15.0426L227.672 12.4439C227.143 12.2844 226.585 12.5838 226.426 13.1126C226.266 13.6413 226.566 14.1993 227.095 14.3587L234.754 16.6687L232.444 24.3279C232.284 24.8567 232.584 25.4146 233.113 25.5741C233.641 25.7335 234.199 25.4342 234.359 24.9054L236.957 16.2887ZM195.473 38.8812L236.473 16.8812L235.527 15.1188L194.527 37.1188L195.473 38.8812Z" fill="black"/>
<path d="M37.9789 22.7955C37.866 22.2549 37.3362 21.9082 36.7955 22.0211L27.9857 23.8611C27.445 23.9741 27.0983 24.5038 27.2112 25.0445C27.3241 25.5851 27.8539 25.9318 28.3945 25.8189L36.2256 24.1833L37.8612 32.0143C37.9741 32.5549 38.5039 32.9017 39.0445 32.7888C39.5851 32.6758 39.9318 32.146 39.8189 31.6054L37.9789 22.7955ZM49.4369 76.1005C34.9746 69.075 27.8744 62.6841 26.3291 54.9187C25.5539 51.0235 26.1467 46.6555 28.093 41.4983C30.0411 36.3365 33.3201 30.449 37.8367 23.5476L36.1633 22.4524C31.6165 29.3999 28.2458 35.4292 26.2219 40.7921C24.1962 46.1596 23.4949 50.9241 24.3675 55.3091C26.1178 64.1041 34.081 70.8644 48.563 77.8995L49.4369 76.1005Z" fill="black"/>
<path d="M122.785 147.399C123.181 147.785 123.189 148.418 122.803 148.813L116.521 155.258C116.136 155.653 115.502 155.661 115.107 155.276C114.711 154.89 114.703 154.257 115.089 153.862L120.673 148.133L114.944 142.549C114.549 142.164 114.541 141.53 114.926 141.135C115.312 140.74 115.945 140.731 116.34 141.117L122.785 147.399ZM83.9654 109.114C82.128 125.087 83.7079 134.509 89.4296 139.981C92.2996 142.727 96.303 144.572 101.699 145.698C107.1 146.826 113.827 147.221 122.074 147.115L122.1 149.115C113.798 149.221 106.901 148.828 101.29 147.656C95.6742 146.483 91.2781 144.517 88.0471 141.427C81.5667 135.228 80.1386 124.881 81.9785 108.886L83.9654 109.114Z" fill="black"/>
<path d="M100.722 188.002C100.607 187.462 100.075 187.118 99.5349 187.234L90.7349 189.121C90.1948 189.236 89.8509 189.768 89.9667 190.308C90.0825 190.848 90.6141 191.192 91.1541 191.076L98.9764 189.399L100.653 197.222C100.769 197.762 101.301 198.106 101.841 197.99C102.381 197.874 102.725 197.342 102.609 196.802L100.722 188.002ZM98.3047 264.815C98.8383 264.957 99.3864 264.64 99.5289 264.106L101.851 255.411C101.993 254.877 101.676 254.329 101.143 254.187C100.609 254.044 100.061 254.362 99.9184 254.895L97.8545 262.624L90.1253 260.56C89.5918 260.418 89.0437 260.735 88.9012 261.269C88.7587 261.802 89.0758 262.35 89.6094 262.493L98.3047 264.815ZM98.9049 187.669C89.4463 202.289 84.7019 213.906 84.5934 225.712C84.4849 237.51 89.0084 249.33 97.6971 264.349L99.4283 263.348C90.7947 248.424 86.4898 236.985 86.5933 225.73C86.6967 214.484 91.2044 203.254 100.584 188.755L98.9049 187.669Z" fill="black"/>
<path d="M184.707 230.707C185.098 230.317 185.098 229.683 184.707 229.293L178.343 222.929C177.953 222.538 177.319 222.538 176.929 222.929C176.538 223.319 176.538 223.953 176.929 224.343L182.586 230L176.929 235.657C176.538 236.047 176.538 236.681 176.929 237.071C177.319 237.462 177.953 237.462 178.343 237.071L184.707 230.707ZM151 231H184V229H151V231Z" fill="black"/>
<path d="M61.2929 230.707C60.9024 230.317 60.9024 229.683 61.2929 229.293L67.6569 222.929C68.0474 222.538 68.6805 222.538 69.0711 222.929C69.4616 223.319 69.4616 223.953 69.0711 224.343L63.4142 230L69.0711 235.657C69.4616 236.047 69.4616 236.681 69.0711 237.071C68.6805 237.462 68.0474 237.462 67.6569 237.071L61.2929 230.707ZM95 231H62V229H95V231Z" fill="black"/>
<rect x="191" y="109" width="16" height="16" fill="#D9D9D9"/>
<path d="M196.202 121L194.213 113.727H195.108L196.628 119.651H196.699L198.247 113.727H199.241L200.79 119.651H200.861L202.381 113.727H203.276L201.287 121H200.378L198.773 115.205H198.716L197.111 121H196.202Z" fill="black"/>
<rect x="191" y="127" width="16" height="16" fill="#D9D9D9"/>
<path d="M199.858 133.545C199.815 133.186 199.643 132.906 199.339 132.707C199.036 132.509 198.665 132.409 198.224 132.409C197.902 132.409 197.621 132.461 197.379 132.565C197.14 132.67 196.953 132.813 196.818 132.995C196.686 133.177 196.619 133.384 196.619 133.616C196.619 133.811 196.665 133.978 196.758 134.117C196.853 134.254 196.973 134.369 197.12 134.462C197.267 134.552 197.421 134.626 197.582 134.685C197.743 134.742 197.891 134.788 198.026 134.824L198.764 135.023C198.954 135.072 199.164 135.141 199.396 135.229C199.631 135.316 199.854 135.436 200.067 135.587C200.283 135.737 200.46 135.928 200.6 136.163C200.74 136.397 200.81 136.685 200.81 137.026C200.81 137.419 200.707 137.774 200.501 138.091C200.297 138.408 199.999 138.66 199.606 138.847C199.215 139.034 198.741 139.128 198.182 139.128C197.661 139.128 197.21 139.044 196.829 138.876C196.45 138.708 196.152 138.473 195.934 138.173C195.719 137.872 195.597 137.523 195.568 137.125H196.477C196.501 137.4 196.593 137.627 196.754 137.807C196.918 137.984 197.124 138.117 197.372 138.205C197.623 138.29 197.893 138.332 198.182 138.332C198.518 138.332 198.82 138.278 199.087 138.169C199.355 138.058 199.567 137.904 199.723 137.707C199.879 137.509 199.957 137.277 199.957 137.011C199.957 136.77 199.89 136.573 199.755 136.422C199.62 136.27 199.442 136.147 199.222 136.053C199.002 135.958 198.764 135.875 198.509 135.804L197.614 135.548C197.045 135.385 196.596 135.152 196.264 134.849C195.933 134.546 195.767 134.149 195.767 133.659C195.767 133.252 195.877 132.897 196.097 132.594C196.32 132.288 196.618 132.052 196.992 131.884C197.369 131.713 197.789 131.628 198.253 131.628C198.722 131.628 199.138 131.712 199.503 131.88C199.867 132.046 200.156 132.273 200.369 132.562C200.585 132.851 200.698 133.179 200.71 133.545H199.858Z" fill="black"/>
<rect x="173" y="127" width="16" height="16" fill="#D9D9D9"/>
<path d="M178.179 139H177.256L179.926 131.727H180.835L183.506 139H182.582L180.409 132.878H180.352L178.179 139ZM178.52 136.159H182.241V136.94H178.52V136.159Z" fill="black"/>
<rect x="209" y="127" width="16" height="16" fill="#D9D9D9"/>
<path d="M216.125 139H213.881V131.727H216.224C216.93 131.727 217.534 131.873 218.036 132.164C218.537 132.453 218.922 132.868 219.19 133.411C219.457 133.95 219.591 134.597 219.591 135.349C219.591 136.107 219.456 136.759 219.186 137.306C218.916 137.851 218.523 138.27 218.007 138.563C217.491 138.854 216.864 139 216.125 139ZM214.761 138.219H216.068C216.67 138.219 217.168 138.103 217.563 137.871C217.959 137.639 218.253 137.308 218.447 136.88C218.642 136.451 218.739 135.941 218.739 135.349C218.739 134.762 218.643 134.257 218.451 133.833C218.259 133.407 217.973 133.08 217.592 132.853C217.21 132.623 216.736 132.509 216.168 132.509H214.761V138.219Z" fill="black"/>
<rect x="44" y="287" width="16" height="16" transform="rotate(-90 44 287)" fill="#D9D9D9"/>
<path d="M48 280.333L48.94 281.273L52 278.22L55.06 281.273L56 280.333L52 276.333L48 280.333Z" fill="black"/>
<rect x="44" y="305" width="16" height="16" transform="rotate(-90 44 305)" fill="#D9D9D9"/>
<path d="M48 295.667L48.94 294.727L52 297.78L55.06 294.727L56 295.667L52 299.667L48 295.667Z" fill="black"/>
<rect x="42" y="305" width="16" height="16" transform="rotate(180 42 305)" fill="#D9D9D9"/>
<path d="M35.3333 301L36.2733 300.06L33.22 297L36.2733 293.94L35.3333 293L31.3333 297L35.3333 301Z" fill="black"/>
<rect x="62" y="289" width="16" height="16" fill="#D9D9D9"/>
<path d="M68.6667 293L67.7267 293.94L70.78 297L67.7267 300.06L68.6667 301L72.6667 297L68.6667 293Z" fill="black"/>
</g>
<defs>
<clipPath id="clip0_95_3">
<rect width="256" height="330" fill="white"/>
</clipPath>
</defs>
</svg>
